<svg viewBox="0 0 104 26" 
    xmlns="http://www.w3.org/2000/svg" fill-rule="evenodd" clip-rule="evenodd" stroke-linejoin="round" stroke-miterlimit="1.414">
    <path class="lettero" d="M9.936 25.92c-1.512 0-2.88-.258-4.104-.774-1.224-.516-2.268-1.218-3.132-2.106a9.348 9.348 0 0 1-1.998-3.096A9.936 9.936 0 0 1 0 16.236c0-1.344.228-2.61.684-3.798a9.27 9.27 0 0 1 1.98-3.132c.864-.9 1.914-1.614 3.15-2.142 1.236-.528 2.622-.792 4.158-.792 1.536 0 2.91.264 4.122.792 1.212.528 2.244 1.236 3.096 2.124.852.888 1.5 1.92 1.944 3.096.444 1.176.666 2.4.666 3.672 0 .312-.006.612-.018.9a3.661 3.661 0 0 1-.09.72H5.112c.072.744.252 1.404.54 1.98.288.576.66 1.068 1.116 1.476.456.408.972.72 1.548.936a5.085 5.085 0 0 0 1.8.324 5.56 5.56 0 0 0 2.718-.702c.852-.468 1.434-1.086 1.746-1.854l4.14 1.152c-.696 1.44-1.806 2.622-3.33 3.546-1.524.924-3.342 1.386-5.454 1.386zm4.896-11.376c-.12-1.416-.642-2.55-1.566-3.402-.924-.852-2.046-1.278-3.366-1.278-.648 0-1.254.114-1.818.342a4.744 4.744 0 0 0-1.494.954c-.432.408-.786.9-1.062 1.476a5.202 5.202 0 0 0-.486 1.908h9.792z" fill="currentColor" fill-rule="nonzero"/>
    <path class="kazu" d="M23.04 25.56V.036h4.968v12.132L38.736 0h5.472l-9.792 11.34L44.82 25.56h-5.58l-7.956-11.052-3.276 3.42v7.632H23.04zM51.804 25.92c-.912 0-1.764-.15-2.556-.45a6.144 6.144 0 0 1-2.052-1.26 5.865 5.865 0 0 1-1.35-1.89c-.324-.72-.486-1.512-.486-2.376 0-.888.198-1.71.594-2.466a5.655 5.655 0 0 1 1.656-1.926c.708-.528 1.554-.942 2.538-1.242.984-.3 2.064-.45 3.24-.45.84 0 1.662.072 2.466.216.804.144 1.518.348 2.142.612v-1.08c0-1.248-.354-2.208-1.062-2.88-.708-.672-1.758-1.008-3.15-1.008-1.008 0-1.992.18-2.952.54-.96.36-1.944.888-2.952 1.584l-1.476-3.06c2.424-1.608 5.04-2.412 7.848-2.412 2.712 0 4.818.666 6.318 1.998 1.5 1.332 2.25 3.258 2.25 5.778v5.868c0 .504.09.864.27 1.08.18.216.474.336.882.36v4.104c-.816.168-1.524.252-2.124.252-.912 0-1.614-.204-2.106-.612-.492-.408-.798-.948-.918-1.62l-.108-1.044c-.84 1.104-1.86 1.944-3.06 2.52a8.787 8.787 0 0 1-3.852.864zm1.368-3.528c.816 0 1.59-.144 2.322-.432.732-.288 1.302-.672 1.71-1.152.528-.408.792-.864.792-1.368v-2.16a11.81 11.81 0 0 0-1.872-.522 10.083 10.083 0 0 0-1.944-.198c-1.248 0-2.268.282-3.06.846-.792.564-1.188 1.278-1.188 2.142 0 .816.312 1.494.936 2.034.624.54 1.392.81 2.304.81zM66.06 22.608L76.572 10.08h-10.08V6.696h15.156v2.952l-10.44 12.528h10.62v3.384H66.06v-2.952zM90.828 25.92c-1.944 0-3.42-.624-4.428-1.872-1.008-1.248-1.512-3.096-1.512-5.544V6.696h4.824V17.46c0 2.904 1.044 4.356 3.132 4.356.936 0 1.842-.282 2.718-.846.876-.564 1.59-1.422 2.142-2.574v-11.7h4.824v13.32c0 .504.09.864.27 1.08.18.216.474.336.882.36v4.104c-.48.096-.882.156-1.206.18-.324.024-.618.036-.882.036-.864 0-1.566-.198-2.106-.594-.54-.396-.858-.942-.954-1.638l-.108-1.512c-.84 1.296-1.92 2.268-3.24 2.916-1.32.648-2.772.972-4.356.972z" fill="currentColor" fill-rule="nonzero"/>
</svg>