<?xml version="1.0" encoding="UTF-8"?>
<svg width="167px" height="205px" viewBox="0 0 167 205" version="1.1" xmlns="http://www.w3.org/2000/svg" xmlns:xlink="http://www.w3.org/1999/xlink">
    <!-- Generator: Sketch 52.1 (67048) - http://www.bohemiancoding.com/sketch -->
    <title>student</title>
    <desc>Created with Sketch.</desc>
    <g id="Page-1" stroke="none" stroke-width="1" fill="none" fill-rule="evenodd">
        <g id="Artboard" transform="translate(-462.000000, -344.000000)">
            <g id="Group-2" transform="translate(400.000000, 302.000000)">
                <g id="student" transform="translate(62.000000, 42.000000)">
                    <path d="M161.266094,46.1703807 C161.266094,42.4965816 158.968578,39.3670491 155.737696,38.1268093 L155.737696,3.07792112 C155.737696,1.37787008 154.361059,0 152.666017,0 C150.969413,0 149.592776,1.37787008 149.592776,3.07792112 L149.592776,38.1283736 C146.361894,39.368613 144.064378,42.4965816 144.064378,46.1703807 C144.064378,49.8441801 146.361894,52.9721487 149.592776,54.2123882 L149.592776,63.8168157 C149.592776,65.5168668 150.969413,66.8947368 152.666017,66.8947368 C154.361059,66.8947368 155.737696,65.5168668 155.737696,63.8168157 L155.737696,54.2123882 C158.968578,52.9721487 161.266094,49.8441801 161.266094,46.1703807 Z" id="Path" fill="#FFD664"></path>
                    <path d="M156.304532,38.8421053 C157.017368,40.0851779 157.431273,41.5236346 157.431273,43.0605526 C157.431273,47.7420747 153.64941,51.5389852 148.984549,51.5389852 C147.451568,51.5389852 146.019764,51.1236018 144.781116,50.4082197 C146.23898,52.9512878 148.967686,54.6666667 152.101099,54.6666667 C156.767492,54.6666667 160.549356,50.8712949 160.549356,46.1897724 C160.549356,43.0451678 158.840083,40.3067156 156.304532,38.8421053 Z" id="Path" fill="#F9C646"></path>
                    <path d="M158.206475,0 L8.07678697,0 C6.38684455,0 5.01716738,1.37685224 5.01716738,3.07564746 C5.01716738,4.77444267 6.38684455,6.15129492 8.07678697,6.15129492 L34.1861625,6.15129492 L34.1861625,45.3157895 L132.097099,45.3157895 L132.097099,6.15129492 L158.206475,6.15129492 C159.896417,6.15129492 161.266094,4.77444267 161.266094,3.07564746 C161.266094,1.37685224 159.894862,0 158.206475,0 Z" id="Path" fill="#636363"></path>
                    <path d="M58.9418188,137.385965 L23.9810392,147.108693 C9.80829798,151.050256 0,163.968086 0,178.694288 L0,201.002219 C0,203.210368 1.78758083,205 3.9932002,205 L163.0068,205 C165.212419,205 167,203.210368 167,201.002219 L167,178.694288 C167,163.968086 157.191702,151.050256 143.018961,147.108693 L108.058181,137.385965 L58.9418188,137.385965 Z" id="Path" fill="#DDF5FF"></path>
                    <polygon id="Path" fill="#FF6969" points="91.1861032 166.877193 96.0429185 191.473308 83.5000002 205 70.9570815 191.473308 75.812355 166.877193"></polygon>
                    <path d="M96.0429185,191.602579 L91.0489228,166.877193 L83.1416309,166.877193 L89.4725395,198.526316 C92.7569359,195.065232 96.0429185,191.602579 96.0429185,191.602579 Z" id="Path" fill="#EA4747"></path>
                    <path d="M166.283262,178.523677 L166.283262,200.976052 C166.283262,203.198655 164.503353,205 162.3072,205 L83.1416309,205 L107.187487,179.427493 L119.401452,140.263158 L142.403592,146.73134 C156.51706,150.695558 166.283262,163.699514 166.283262,178.523677 Z" id="Path" fill="#636363"></path>
                    <path d="M143.118327,146.759086 L140.480687,146.017544 C147.565655,152.141552 151.916674,161.211304 151.916674,171.094868 L151.916674,205 L163.023346,205 C165.218272,205 167,203.199561 167,200.978076 L167,178.535427 C167,163.720293 157.232343,150.724452 143.118327,146.759086 Z" id="Path" fill="#494949"></path>
                    <path d="M23.8781163,146.729769 L46.880256,140.263158 L59.0957745,179.427493 L83.1416309,205 L3.976062,205 C1.77990881,205 0,203.198655 0,200.976052 L0,178.522105 C0,163.699514 9.76620228,150.69713 23.8781163,146.729769 Z" id="Path" fill="#636363"></path>
                    <polygon id="Path" fill="#F9B3A7" points="98.193133 126.945043 83.5000002 141.701754 68.806867 126.945043 68.806867 103.578947 98.193133 103.578947"></polygon>
                    <polygon id="Path" fill="#FFD664" points="121.845494 45.3157895 132.596567 45.3157895 132.596567 61.8596491 121.845494 61.8596491"></polygon>
                    <path d="M124.822567,2.87719298 L124.822567,28.8352689 C124.822567,33.3856263 121.158527,37.0755292 116.640065,37.0755292 L34.4034335,37.0755292 L34.4034335,45.3157895 L132.596567,45.3157895 L132.596567,2.87719298 L124.822567,2.87719298 Z" id="Path" fill="#494949"></path>
                    <polygon id="Path" fill="#FFD664" points="34.4034335 45.3157895 45.1545064 45.3157895 45.1545064 61.8596491 34.4034335 61.8596491"></polygon>
                    <path d="M83.475797,45.3157895 L45.1061,45.3157895 L45.1061,58.899626 L38.9833754,58.899626 C34.4737774,58.899626 30.8197425,62.5861965 30.8197425,67.1324443 L30.8197425,72.8960445 C30.8197425,77.4422923 34.4737774,81.1288628 38.9833754,81.1288628 L45.5945493,81.1288628 C48.5267992,99.5648538 64.368727,113.649123 83.475797,113.649123 C104.667331,113.649123 121.845494,96.3253779 121.845494,74.954249 L121.845494,45.3157895 L83.475797,45.3157895 Z" id="Path" fill="#FECCC1"></path>
                    <path d="M127.960498,58.899626 L121.795679,58.899626 L121.795679,45.3157895 L110.288329,45.3157895 L110.288329,74.954249 C110.288329,94.3660049 96.0149549,110.439453 77.4077253,113.222422 C79.2856773,113.503229 81.2059181,113.649123 83.1621836,113.649123 C102.400618,113.649123 118.351462,99.5648538 121.303872,81.1288628 L127.960498,81.1288628 C132.501101,81.1288628 136.180258,77.4438609 136.180258,72.8960445 L136.180258,67.134013 C136.180258,62.5861965 132.501101,58.899626 127.960498,58.899626 Z" id="Path" fill="#F9B3A7"></path>
                    <polygon id="Path" fill="#FF6969" points="83.1424115 166.877193 90.9231269 166.877193 98.9098712 157.591519 83.1424115 141.701754 67.3733906 157.591519 75.3601349 166.877193"></polygon>
                    <path d="M82.984639,141.701754 L78.1244635,146.552198 L86.4654263,154.87376 C88.0008821,156.405645 88.0891629,158.859177 86.6672111,160.494864 L81.1228593,166.877193 L90.8432098,166.877193 L98.9098712,157.591519 L82.984639,141.701754 Z" id="Path" fill="#EA4747"></path>
                    <polygon id="Path" fill="#C1E9F4" points="67.633883 157.526316 83.1416309 141.541661 68.6408198 126.596491 58.7725322 137.045136"></polygon>
                    <polygon id="Path" fill="#C1E9F4" points="99.3655585 157.526316 83.8583691 141.541661 98.3600932 126.596491 108.227468 137.045136"></polygon>
                    <g id="Group" transform="translate(27.952790, 189.175439)" fill="#494949">
                        <path d="M111.09286,3.25299812 L111.09286,15.8245614 L104.948699,15.8245614 L104.948699,3.25299812 C104.948699,1.5747294 106.325515,0.211715225 108.020779,0.211715225 C109.716043,0.211715225 111.09286,1.5747294 111.09286,3.25299812 Z" id="Path"></path>
                        <path d="M0.0858560061,15.8245614 L0.0858560061,3.25299812 C0.0858560061,1.5747294 1.46111142,0.211715225 3.15793643,0.211715225 C4.85320013,0.211715225 6.23001686,1.5747294 6.23001686,3.25299812 L6.23001686,15.8245614 L0.0858560061,15.8245614 Z" id="Path"></path>
                    </g>
                </g>
            </g>
        </g>
    </g>
</svg>