<?xml version="1.0" encoding="UTF-8"?>
<svg width="169px" height="205px" viewBox="0 0 169 205" version="1.1" xmlns="http://www.w3.org/2000/svg" xmlns:xlink="http://www.w3.org/1999/xlink">
    <!-- Generator: Sketch 52.1 (67048) - http://www.bohemiancoding.com/sketch -->
    <title>teacher</title>
    <desc>Created with Sketch.</desc>
    <g id="Page-1" stroke="none" stroke-width="1" fill="none" fill-rule="evenodd">
        <g id="Artboard" transform="translate(-802.000000, -344.000000)">
            <g id="Group-2" transform="translate(400.000000, 302.000000)">
                <g id="teacher" transform="translate(402.000000, 42.000000)">
                    <path d="M49.4110169,51.0701754 L49.4110169,25.8947368 L42.7268784,25.8947368 C38.1139921,25.8947368 34.3728814,29.651207 34.3728814,34.2865497 L34.3728814,51.0701754 L49.4110169,51.0701754 Z" id="Path" fill="#DDF5FF"></path>
                    <path d="M169,169.254913 L169,200.120521 C169,202.417678 167.145095,204.280702 164.85795,204.280702 L4.14205015,204.280702 C1.85490449,204.280702 0,202.417678 0,200.120521 L0,169.254913 C0,154.303871 9.92443934,141.186183 24.269242,137.188411 L59.6476991,127.315789 L109.352301,127.315789 L144.730758,137.188411 C159.075561,141.186183 169,154.303871 169,169.254913 Z" id="Path" fill="#C9D2E3"></path>
                    <polygon id="Path" fill="#FF6969" points="92.4002688 157.526316 97.3898305 204.280702 71.6101695 204.280702 76.5997308 157.526316"></polygon>
                    <polygon id="Path" fill="#EA4747" points="92.2980825 157.526316 85.9322034 157.526316 91.023951 204.280702 97.3898305 204.280702"></polygon>
                    <path d="M144.494878,137.410619 L141.788136,136.666667 C149.058972,142.825282 153.524155,151.947255 153.524155,161.887886 L153.524155,204.280702 L164.817424,204.280702 C167.126947,204.280702 169,202.423935 169,200.134492 L169,169.370985 C169,154.471711 158.97689,141.399634 144.494878,137.410619 Z" id="Path" fill="#ADBBD5"></path>
                    <polygon id="Path" fill="#F9B3A7" points="99.5381356 117.316336 84.5000002 132.350877 69.4618644 117.316336 69.4618644 93.5087719 99.5381356 93.5087719"></polygon>
                    <path d="M118.872881,51.0701754 L118.872881,25.8947368 L125.55702,25.8947368 C130.169906,25.8947368 133.911017,29.651207 133.911017,34.2865497 L133.911017,51.0701754 L118.872881,51.0701754 Z" id="Path" fill="#C1E9F4"></path>
                    <path d="M84.2301602,1.13610617e-14 C62.7250504,1.13610617e-14 45.2908285,17.5070047 45.2908285,39.1018917 L45.2908285,48.2535647 L39.0772047,48.2535647 C34.500955,48.2535647 30.7923729,51.9776287 30.7923729,56.5729833 L30.7923729,62.3972007 C30.7923729,66.9925553 34.500955,70.7166192 39.0772047,70.7166192 L45.7868612,70.7166192 C48.7615013,89.3463083 64.8397973,103.578947 84.2301602,103.578947 C105.73527,103.578947 123.169492,86.0719427 123.169492,64.4770553 L123.169492,39.1018917 C123.169492,17.5070047 105.73527,0 84.2301602,0 Z" id="Path" fill="#FECCC1"></path>
                    <path d="M129.207831,48.2535647 L122.99506,48.2535647 L122.99506,39.1018917 C122.99506,17.5070047 105.563232,0 84.0610743,0 C82.0181359,0 80.0125119,0.159268348 78.0550847,0.463751273 C96.7058353,3.36336834 110.984636,19.5587534 110.984636,39.1018917 L110.984636,64.4770553 C110.984636,84.0217553 96.7058353,100.215579 78.0550847,103.116757 C80.0125119,103.42124 82.0181359,103.578947 84.0610743,103.578947 C103.448775,103.578947 119.524864,89.3463083 122.499096,70.7166192 L129.207831,70.7166192 C133.783453,70.7166192 137.491525,66.9925553 137.491525,62.3972007 L137.491525,56.5729833 C137.491525,51.97919 133.783453,48.2535647 129.207831,48.2535647 Z" id="Path" fill="#F9B3A7"></path>
                    <polygon id="Path" fill="#FF6969" points="84.5000002 157.526316 92.2749779 157.526316 100.254237 148.240636 84.5000002 132.350877 68.7457627 148.240636 76.7250221 157.526316"></polygon>
                    <path d="M84.3427862,132.350877 L79.4872881,137.201305 L87.8207497,145.523405 C89.3534117,147.055527 89.4418344,149.507851 88.022416,151.145316 L82.4828047,157.526316 L92.1953517,157.526316 L100.254237,148.240636 L84.3427862,132.350877 Z" id="Path" fill="#EA4747"></path>
                    <g id="Group" transform="translate(28.644068, 117.245614)" fill="#ADBBD5">
                        <polygon id="Path" points="40.2144752 30.9956937 56.1317354 15.0724825 41.2480032 0.184738531 31.3270671 10.523881"></polygon>
                        <polygon id="Path" points="72.0489953 30.9956937 56.1317354 15.0724825 71.0154672 0.184738531 80.9364038 10.523881"></polygon>
                        <path d="M112.150186,74.2136195 L112.150186,87.0350877 L105.949019,87.0350877 L105.949019,74.2136195 C105.949019,72.5028487 107.337919,71.1118769 109.049603,71.1118769 C110.761286,71.1118769 112.150186,72.5028487 112.150186,74.2136195 Z" id="Path"></path>
                        <path d="M0.113284484,87.0350877 L0.113284484,74.2136195 C0.113284484,72.5028487 1.50218462,71.1118769 3.21386822,71.1118769 C4.92555183,71.1118769 6.31445156,72.5028487 6.31445156,74.2136195 L6.31445156,87.0350877 L0.113284484,87.0350877 Z" id="Path"></path>
                    </g>
                    <path d="M91.6610169,44.5429778 L91.6610169,52.5087719 C91.2616921,52.3285857 90.8955127,52.0951272 90.5845756,51.8146635 C89.8238065,51.1424909 87.262129,49.4189714 84.5000002,49.4189714 C81.1901801,49.4189714 78.4580402,51.773926 78.4327865,51.7989953 C78.1171146,52.0872931 77.7462,52.3238855 77.3389831,52.5040713 L77.3389831,44.5445445 C79.3024626,43.7642604 81.7252441,43.1578947 84.5000002,43.1578947 C87.2747559,43.1578947 89.6975378,43.7626936 91.6610169,44.5429778 Z" id="Path" fill="#636363"></path>
                    <path d="M78.7711864,49.2719298 C78.7711864,55.4285149 73.8008351,60.4210526 67.6716104,60.4210526 C61.5408418,60.4210526 56.5720339,55.4285149 56.5720339,49.2719298 C56.5720339,43.1137949 61.5408418,38.122807 67.6716104,38.122807 C73.8008351,38.122807 78.7711864,43.1137949 78.7711864,49.2719298 Z" id="Path" fill="#DDF5FF"></path>
                    <path d="M73.1508586,39.5614035 C74.0744521,41.188906 74.6042051,43.0708512 74.6042051,45.0769148 C74.6042051,51.2409453 69.6310104,56.236711 63.4948296,56.236711 C61.4978295,56.236711 59.6243866,55.7045533 58.0042373,54.7767684 C59.9162918,58.1481345 63.5226303,60.4210526 67.661811,60.4210526 C73.796447,60.4210526 78.7711864,55.4252869 78.7711864,49.2612568 C78.7696421,45.1048416 76.5069926,41.4821356 73.1508586,39.5614035 Z" id="Path" fill="#C1E9F4"></path>
                    <path d="M112.427966,49.2719298 C112.427966,55.4285149 107.459158,60.4210526 101.32839,60.4210526 C95.1991646,60.4210526 90.2288136,55.4285149 90.2288136,49.2719298 C90.2288136,43.1137949 95.1991646,38.122807 101.32839,38.122807 C107.459158,38.122807 112.427966,43.1137949 112.427966,49.2719298 Z" id="Path" fill="#DDF5FF"></path>
                    <path d="M106.807639,39.5614035 C107.731232,41.188906 108.260985,43.0708512 108.260985,45.0769148 C108.260985,51.2409453 103.28779,56.236711 97.1516094,56.236711 C95.1546089,56.236711 93.2811663,55.7045533 91.6610169,54.7767684 C93.5730711,58.1481345 97.1794097,60.4210526 101.31859,60.4210526 C107.453227,60.4210526 112.427966,55.4252869 112.427966,49.2612568 C112.426422,45.1048416 110.163773,41.4821356 106.807639,39.5614035 Z" id="Path" fill="#C1E9F4"></path>
                </g>
            </g>
        </g>
    </g>
</svg>