<svg className="illustration" width="169px" height="205px" viewBox="0 0 578 582" version="1.1" 
    xmlns="http://www.w3.org/2000/svg" 
    xmlns:xlink="http://www.w3.org/1999/xlink">
    <g id="Page-1" stroke="none" stroke-width="1" fill="none" fill-rule="evenodd">
        <g id="Desktop-HD" transform="translate(-429.000000, -215.000000)">
            <g id="teacher" transform="translate(429.000000, 215.000000)">
                <path d="M577.662916,308.215167 C577.803747,371.712363 563.186577,571.521443 308.889039,580.842169 C-28.1468729,593.195491 1.5613532,309.391058 1.48821475,276.414732 C1.17330117,138.147878 113.917172,-18.8904498 308.889039,2.67453311 C503.860907,24.239516 577.348002,169.950269 577.662916,308.215167 Z" id="Path" fill-opacity="0.52" fill="#DA4446"></path>
                <path d="M544.999,296.406 C545.143,361.337 521.116,420.672 481.367,465.895 C472.784,475.666 463.458,484.781 453.498,493.142 C411.084,528.772 356.934,550.878 297.666,552.855 C294.99,552.944 292.292,552.988 289.594,552.999 C286.752,553.01 283.931,552.966 281.111,552.877 C221.954,551.089 167.815,529.216 125.323,493.831 C115.352,485.537 106.015,476.488 97.41,466.784 C57.461,421.739 33.145,362.515 33.001,297.584 C32.679,156.195 147.03,41.323 288.417,41.001 C429.793,40.679 544.677,155.019 544.999,296.406" id="Path" fill="#DA4446"></path>
                <path d="M453.494,493.139 C413.601,526.648 363.326,548.199 308.165,552.285 C304.69,552.54 301.181,552.729 297.661,552.851 C294.985,552.94 292.287,552.984 289.589,552.995 C286.747,553.006 283.926,552.962 281.106,552.873 C276.887,552.74 272.701,552.518 268.537,552.185 C226.689,548.876 187.662,535.497 153.886,514.457 C143.882,508.239 134.333,501.333 125.318,493.827 C148.834,469.556 177.691,450.492 210.013,438.5 C214.032,436.99 218.118,435.613 222.249,434.336 C227.079,432.848 231.975,431.516 236.927,430.35 C245.543,428.318 254.337,426.775 263.297,425.753 C269.171,425.065 275.1,424.62 281.106,424.398 C283.793,424.287 286.491,424.243 289.211,424.231 C292.042,424.22 294.862,424.264 297.66,424.375 C317.468,425.041 336.643,428.228 354.863,433.624 C359.426,434.979 363.934,436.466 368.376,438.099 C400.81,449.948 429.811,468.935 453.494,493.139 Z" id="Path" fill="#F2F2F2"></path>
                <path d="M354.954,442.753 C343.14,455.166 342.374,460.174 326.641,466.181 C325.908,466.47 325.175,466.747 324.443,467.003 C313.273,471.011 301.36,473.154 289.002,473.154 C276.633,473.154 264.72,471.011 253.561,467.003 C252.817,466.748 252.084,466.47 251.351,466.181 C235.784,460.252 233.442,453.313 221.717,441.088 C225.736,439.578 218.12,435.614 222.25,434.337 C227.08,432.849 231.976,431.517 236.928,430.351 C245.544,428.319 254.338,426.776 263.298,425.754 C269.172,425.066 275.101,424.621 281.107,424.399 C283.794,424.288 286.492,424.244 289.212,424.232 C292.043,424.221 294.863,424.265 297.661,424.376 C317.469,425.042 336.644,428.229 354.864,433.625 C359.428,434.981 350.512,441.121 354.954,442.753 Z" id="Path" fill="#E0B775"></path>
                <path d="M263.302,425.757 L251.355,440.402 C251.355,440.402 188.278,466.128 153.892,514.46 C143.888,508.242 134.339,501.336 125.324,493.83 C155.202,463.008 193.697,440.557 236.932,430.353 C245.548,428.32 254.342,426.778 263.302,425.757 Z" id="Path" fill="#E6E6E6"></path>
                <path d="M292.854,501.302 L308.165,552.288 C304.69,552.543 301.181,552.732 297.661,552.854 C294.985,552.943 292.287,552.987 289.589,552.998 C286.747,553.009 283.926,552.965 281.106,552.876 C276.887,552.743 272.701,552.521 268.537,552.188 L283.815,501.302 L273.267,485.502 L263.208,470.435 L270.492,463.151 C275.866,467.015 281.828,469.713 288.335,470.435 C294.841,469.713 300.804,467.015 306.178,463.151 L313.462,470.435 L303.403,485.502 L292.854,501.302 Z" id="Path" fill="#A5795B"></path>
                <g id="Group" transform="translate(206.000000, 413.000000)" fill="#E6E6E6">
                    <path d="M82.335,57.436 L40.565,99.206 L0.172,17.354 L30.928,0.699 C30.928,0.699 42.986,34.708 64.493,50.152 C69.866,54.016 75.829,56.713 82.335,57.436 Z" id="Path"></path>
                    <path d="M164.498,17.353 L124.105,99.205 L82.335,57.435 C88.841,56.713 94.804,54.015 100.178,50.151 C121.685,34.707 133.743,0.698 133.743,0.698 L164.498,17.353 Z" id="Path"></path>
                </g>
                <g id="Group" transform="translate(145.000000, 251.000000)" fill="#EFC881">
                    <path d="M75.236,32.861 C75.236,14.916 58.476,0.369 37.801,0.369 C17.126,0.369 0.366,14.916 0.366,32.861 C0.366,50.806 17.126,77.961 37.801,77.961 C58.476,77.961 75.236,50.806 75.236,32.861" id="Path"></path>
                    <path d="M287.639,32.861 C287.639,14.916 270.879,0.369 250.204,0.369 C229.529,0.369 212.769,14.916 212.769,32.861 C212.769,50.806 229.529,77.961 250.204,77.961 C270.879,77.961 287.639,50.806 287.639,32.861" id="Path"></path>
                </g>
                <g id="Group" transform="translate(159.000000, 270.000000)" fill="#E0B775">
                    <path d="M259.074,19.223 C259.074,8.634 252.612,0.049 244.64,0.049 C236.668,0.049 230.206,8.633 230.206,19.223 C230.206,29.812 236.668,31.18 244.64,31.18 C252.612,31.18 259.074,29.812 259.074,19.223 Z" id="Path"></path>
                    <path d="M29.794,19.223 C29.794,8.634 23.332,0.049 15.36,0.049 C7.388,0.049 0.926,8.633 0.926,19.223 C0.926,29.812 7.388,31.18 15.36,31.18 C23.333,31.179 29.794,29.812 29.794,19.223 Z" id="Path"></path>
                </g>
                <path d="M404.34,252.957 L404.34,319.698 C404.34,332.3 402.686,344.491 399.599,355.994 C398.466,360.224 397.156,364.344 395.635,368.363 C383.111,402.039 357.929,428.464 326.64,440.4 C325.907,440.689 325.174,440.966 324.442,441.222 C313.272,445.23 301.359,447.373 289.001,447.373 C276.632,447.373 264.719,445.23 253.56,441.222 C252.815,440.967 252.083,440.689 251.35,440.4 C228.111,431.54 208.259,414.685 194.435,392.79 C189.638,385.207 185.575,377.024 182.355,368.363 C180.834,364.344 179.524,360.224 178.402,355.994 C175.304,344.491 173.65,332.3 173.65,319.698 L173.65,252.957 C173.65,223.011 182.966,195.476 198.565,173.714 C203.906,166.242 209.99,159.458 216.696,153.484 C236.471,135.841 261.619,125.282 288.999,125.282 C320.843,125.282 349.677,139.572 370.551,162.688 C382.864,176.312 392.413,193.011 398.164,211.653 C402.164,224.611 404.34,238.501 404.34,252.957" id="Path" fill="#F9D387"></path>
                <path d="M329.783,148.886 L318.225,212.141 C318.225,212.141 239.582,270.788 173.651,259.918 L173.651,252.956 C173.651,223.011 182.967,195.475 198.566,173.713 L264.652,148.886 L329.783,148.886 Z" id="Path" fill="#EFC881"></path>
                <g id="Group" transform="translate(224.000000, 278.000000)" fill="#4D4D4D">
                    <path d="M129.205,8.043 L129.205,30.555 C129.205,34.768 125.797,38.175 121.586,38.175 C117.522,38.175 114.205,34.996 113.986,30.982 C113.976,30.842 113.976,30.693 113.976,30.555 L113.976,8.043 C113.976,3.83 117.384,0.423 121.586,0.423 C123.692,0.423 125.6,1.278 126.97,2.648 C127.954,3.632 128.669,4.883 128.996,6.274 C129.136,6.841 129.205,7.437 129.205,8.043" id="Path"></path>
                    <path d="M8.41,38.174 C4.204,38.174 0.794,34.764 0.794,30.557 L0.794,8.039 C0.794,3.832 4.204,0.422 8.41,0.422 C12.617,0.422 16.027,3.832 16.027,8.039 L16.027,30.557 C16.026,34.764 12.617,38.174 8.41,38.174" id="Path"></path>
                </g>
                <g id="Group" transform="translate(213.000000, 239.000000)" fill="#68635B">
                    <path d="M151.096,19.437 C151.096,9.217 142.811,0.931 132.59,0.931 C122.369,0.931 114.084,9.216 114.084,19.437 C124.305,9.217 140.876,9.217 151.096,19.437 Z" id="Path"></path>
                    <path d="M37.915,19.437 C37.915,9.217 29.63,0.931 19.409,0.931 C9.188,0.931 0.903,9.216 0.903,19.437 C11.125,9.217 27.695,9.217 37.915,19.437 Z" id="Path"></path>
                </g>
                <g id="Group" transform="translate(224.000000, 284.000000)" fill="#666666">
                    <path d="M129.201,2.043 L129.201,24.555 C129.201,28.768 125.793,32.175 121.581,32.175 C117.518,32.175 114.201,28.996 113.981,24.982 C122.505,16.219 126.826,6.872 128.992,0.275 C129.131,0.841 129.201,1.437 129.201,2.043" id="Path"></path>
                    <path d="M16.02,2.043 L16.02,24.555 C16.02,28.768 12.612,32.175 8.4,32.175 C4.336,32.175 1.019,28.996 0.8,24.982 C9.324,16.219 13.645,6.872 15.811,0.275 C15.95,0.841 16.02,1.437 16.02,2.043" id="Path"></path>
                </g>
                <path d="M307.083,339.675 C307.083,339.108 306.969,338.554 306.752,338.017 C304.45,332.332 302.822,326.406 302.87,320.274 C302.876,319.589 302.878,318.891 302.878,318.179 C302.878,283.93 296.662,263.421 288.996,263.421 C281.329,263.421 275.114,283.931 275.114,318.179 C275.114,318.891 275.116,319.589 275.122,320.274 C275.17,326.407 273.541,332.332 271.239,338.017 C271.022,338.553 270.908,339.107 270.908,339.675 C270.908,342.471 273.662,344.951 277.924,346.542 C280.459,354.457 284.474,355.55 288.995,355.55 C293.516,355.55 297.532,354.457 300.067,346.542 C304.329,344.952 307.083,342.47 307.083,339.675 Z" id="Path" fill="#E0B775"></path>
                <path d="M330.41,373.599 C330.399,373.71 330.399,373.81 330.388,373.921 C330.344,374.554 330.277,375.187 330.177,375.809 C330.099,376.298 330.01,376.775 329.899,377.252 C329.821,377.596 329.732,377.94 329.644,378.285 C329.278,379.606 328.789,380.894 328.178,382.149 C326.235,386.213 323.115,389.877 319.107,392.919 C311.535,398.648 300.853,402.223 288.995,402.223 C277.137,402.223 266.456,398.648 258.883,392.919 C254.875,389.877 251.755,386.213 249.812,382.149 C249.201,380.894 248.713,379.606 248.346,378.285 C248.257,377.941 248.168,377.597 248.091,377.252 C247.98,376.775 247.891,376.297 247.813,375.809 C247.713,375.187 247.646,374.554 247.602,373.921 C247.591,373.81 247.591,373.71 247.58,373.599 C249.035,373.888 250.511,374.165 252.021,374.421 C263.18,376.353 275.726,377.43 288.994,377.43 C302.262,377.43 314.809,376.353 325.967,374.421 C327.479,374.165 328.956,373.887 330.41,373.599 Z" id="Path" fill="#4D4D4D"></path>
                <path d="M330.41,373.599 C330.399,373.71 330.399,373.81 330.388,373.921 C330.344,374.554 330.277,375.187 330.177,375.809 C330.099,376.298 330.01,376.775 329.899,377.252 C329.821,377.596 329.732,377.94 329.644,378.285 C329.278,379.606 328.789,380.894 328.178,382.149 C324.181,382.771 320.017,383.304 315.72,383.726 C307.271,384.57 298.299,385.014 288.995,385.014 C279.691,385.014 270.719,384.57 262.27,383.726 C257.973,383.304 253.809,382.771 249.812,382.149 C249.201,380.894 248.713,379.606 248.346,378.285 C248.257,377.941 248.168,377.597 248.091,377.252 C247.98,376.775 247.891,376.297 247.813,375.809 C247.713,375.187 247.646,374.554 247.602,373.921 C247.591,373.81 247.591,373.71 247.58,373.599 C249.035,373.888 250.511,374.165 252.021,374.421 C263.18,376.353 275.726,377.43 288.994,377.43 C302.262,377.43 314.809,376.353 325.967,374.421 C327.479,374.165 328.956,373.887 330.41,373.599 Z" id="Path" fill="#F2F2F2"></path>
                <path d="M325.969,374.42 C324.159,377.007 321.839,379.372 319.107,381.448 C318.041,382.259 316.909,383.025 315.721,383.724 C307.272,384.568 298.3,385.012 288.996,385.012 C279.692,385.012 270.72,384.568 262.271,383.724 C261.083,383.025 259.95,382.258 258.885,381.448 C256.154,379.372 253.833,377.007 252.023,374.42 C263.182,376.352 275.728,377.429 288.996,377.429 C302.264,377.429 314.81,376.352 325.969,374.42 Z" id="Path" fill="#FFFFFF"></path>
                <path className="up" d="M240.026,288.466 L240.026,308.557 C240.026,312.764 236.616,316.174 232.409,316.174 C232.408,316.174 232.406,316.174 232.405,316.174 C232.404,316.174 232.402,316.174 232.401,316.174 C228.337,316.174 225.02,312.995 224.801,308.981 C224.802,308.98 224.804,308.978 224.805,308.977 C224.797,308.838 224.794,308.698 224.794,308.557 L224.794,290.034 C213.24,292.982 204.959,299.643 204.959,307.168 C204.959,317.327 220.05,325.911 237.914,325.911 C255.778,325.911 270.869,317.328 270.869,307.168 C270.869,297.413 256.951,289.109 240.026,288.466" id="Path" fill="#FBE1AC"></path>
                <path d="M240.02,288.466 L240.02,308.555 C240.02,312.765 236.616,316.173 232.405,316.175 C232.406,316.175 232.408,316.175 232.409,316.175 C236.616,316.175 240.026,312.765 240.026,308.558 L240.026,288.466 C240.024,288.466 240.022,288.466 240.02,288.466 M237.914,288.426 C233.283,288.426 228.838,289.003 224.793,290.035 L224.793,308.558 C224.793,308.699 224.796,308.839 224.804,308.978 C231.661,301.927 235.798,294.497 238.28,288.428 C238.159,288.426 238.036,288.426 237.914,288.426" id="Shape" fill="#848484" fill-rule="nonzero"></path>
                <path d="M238.281,288.427 C235.798,294.497 231.661,301.926 224.805,308.977 C224.804,308.978 224.802,308.98 224.801,308.981 C225.02,312.995 228.337,316.174 232.401,316.174 C232.402,316.174 232.404,316.174 232.405,316.174 C236.615,316.172 240.02,312.765 240.02,308.554 L240.02,288.466 C239.444,288.443 238.864,288.43 238.281,288.427" id="Path" fill="#959595"></path>
                <path className="up" d="M337.976,288.486 C321.272,289.269 307.619,297.506 307.619,307.168 C307.619,317.327 322.71,325.911 340.573,325.911 C358.437,325.911 373.528,317.328 373.528,307.168 C373.528,299.537 365.014,292.795 353.205,289.912 L353.205,308.553 C353.205,312.766 349.797,316.173 345.586,316.173 C345.585,316.173 345.584,316.173 345.584,316.173 C345.583,316.173 345.582,316.173 345.582,316.173 C341.518,316.173 338.201,312.994 337.982,308.98 C337.983,308.979 337.985,308.977 337.988,308.974 C337.978,308.836 337.978,308.69 337.978,308.552 L337.978,288.485" id="Path" fill="#FBE1AC"></path>
                <path d="M353.201,289.911 L353.201,308.553 C353.201,312.764 349.796,316.172 345.583,316.173 C345.584,316.173 345.585,316.173 345.585,316.173 C349.798,316.173 353.204,312.765 353.204,308.553 L353.204,289.912 C353.204,289.912 353.201,289.911 353.201,289.911 M340.573,288.426 C339.699,288.426 338.834,288.446 337.976,288.487 L337.976,308.555 C337.976,308.693 337.976,308.839 337.986,308.977 C344.468,302.312 348.52,295.309 351.04,289.436 C347.736,288.782 344.211,288.426 340.573,288.426" id="Shape" fill="#848484" fill-rule="nonzero"></path>
                <path d="M351.04,289.435 C348.52,295.309 344.468,302.311 337.986,308.976 C337.985,308.977 337.983,308.979 337.98,308.982 C338.199,312.996 341.516,316.175 345.58,316.175 L345.582,316.175 C349.793,316.174 353.2,312.766 353.2,308.555 L353.2,289.913 C352.491,289.738 351.772,289.579 351.04,289.435" id="Path" fill="#959595"></path>
                <g id="Group" transform="translate(173.000000, 319.000000)" fill="#EFC881">
                    <path d="M21.097,31.145 L20.942,29.956 C19.323,17.562 12.239,6.872 2.046,1.439 L0.657,0.698 C0.657,13.306 2.309,25.493 5.401,36.999 C6.529,41.222 7.839,45.342 9.359,49.36 C21.89,83.035 47.069,109.47 78.356,121.396 C72.212,93.596 57.497,70.829 38.371,58.738 C29.108,52.881 22.624,42.835 21.097,31.145 Z" id="Path"></path>
                    <path d="M211.062,29.957 L210.907,31.146 C209.38,42.835 202.897,52.883 193.631,58.741 C174.506,70.832 159.791,93.599 153.647,121.399 C184.934,109.473 210.113,83.038 222.644,49.363 C224.164,45.344 225.475,41.223 226.602,37.002 C229.695,25.497 231.346,13.309 231.346,0.701 L229.958,1.442 C219.764,6.871 212.68,17.562 211.062,29.957 Z" id="Path"></path>
                </g>
                <path className="up" d="M404.34,252.957 L404.34,298.746 L403.641,301.178 L369.754,214.774 L398.167,211.654 C402.164,224.611 404.34,238.501 404.34,252.957 Z" id="Path" fill="#8E654A"></path>
                <path className="up" d="M399.946,271.267 L396.231,268.833 L374.849,301.465 C370.893,291.791 357.037,284.836 340.086,284.836 C320.922,284.836 305.721,293.73 304.304,305.388 C299.586,302.986 294.373,301.712 289.001,301.712 C283.627,301.712 278.413,302.987 273.694,305.389 C272.278,293.73 257.078,284.836 237.912,284.836 C220.962,284.836 207.105,291.792 203.15,301.465 L181.768,268.833 L178.053,271.267 L202.04,307.874 C202.621,320.057 218.162,329.502 237.912,329.502 C256.13,329.502 270.774,321.468 273.393,310.66 C278.063,307.72 283.432,306.152 289,306.152 C294.565,306.152 299.934,307.719 304.603,310.658 C307.221,321.467 321.866,329.502 340.085,329.502 C359.835,329.502 375.376,320.058 375.958,307.874 L399.946,271.267 Z M237.914,325.06 C220.862,325.06 206.456,316.867 206.456,307.168 C206.456,297.469 220.862,289.275 237.914,289.275 C254.966,289.275 269.372,297.469 269.372,307.168 C269.372,316.867 254.966,325.06 237.914,325.06 Z M340.087,325.06 C323.035,325.06 308.627,316.867 308.627,307.168 C308.627,297.469 323.033,289.275 340.087,289.275 C357.141,289.275 371.545,297.469 371.545,307.168 C371.545,316.867 357.139,325.06 340.087,325.06 Z" id="Shape" fill="#F0A037" fill-rule="nonzero"></path>
                <path className="up" d="M173.661,252.957 L173.661,298.746 L174.36,301.178 L208.247,214.774 L179.834,211.654 C175.837,224.611 173.661,238.501 173.661,252.957 Z" id="Path" fill="#8E654A"></path>
                <path d="M411.069,238.456 C367.5,238.456 337.544,225.532 318.225,212.142 C298.128,198.241 289.523,183.84 289.024,182.985 L289.002,182.941 C289.002,182.941 273.469,210.099 233.231,226.421 C215.943,233.438 194.093,238.457 166.945,238.457 C166.945,238.457 159.239,111.46 249.907,108.217 C261.31,107.806 274.278,109.35 289.001,113.358 C292.065,112.525 295.052,111.792 297.961,111.171 C420.384,84.9 411.069,238.456 411.069,238.456 Z" id="Path" fill="#A5795B"></path>
                <g id="Group" transform="translate(166.000000, 108.000000)" fill="#8E654A">
                    <path d="M40.916,71.976 C40.916,116.388 67.297,118.387 67.297,118.387 L67.23,118.42 C49.942,125.437 28.092,130.456 0.944,130.456 C0.944,130.456 -6.762,3.459 83.906,0.216 C83.907,0.217 40.916,27.564 40.916,71.976 Z" id="Path"></path>
                    <path d="M152.225,104.142 C132.128,90.241 123.523,75.84 123.024,74.985 L123.002,74.941 L123.002,5.357 C126.066,4.524 129.053,3.791 131.962,3.17 C119.393,23.933 152.225,104.142 152.225,104.142 Z" id="Path"></path>
                </g>
                <path d="M310.766,411.074 C310.766,406.533 301.023,411.558 289.003,411.558 C276.983,411.558 267.24,406.534 267.24,411.074 C267.24,415.614 276.983,419.296 289.003,419.296 C301.021,419.295 310.766,415.614 310.766,411.074 Z" id="Path" fill="#EFC881"></path>
            </g>
        </g>
    </g>
</svg>